<svg width="44" height="48" viewBox="0 0 44 48" fill="none" xmlns="http://www.w3.org/2000/svg">
<path d="M20.8243 22.9351L0.87381 43.8393C0.87456 43.8436 0.876059 43.8472 0.876761 43.8516C1.48863 46.1216 3.58892 47.793 6.08153 47.793C7.07796 47.793 8.01347 47.527 8.81576 47.0602L8.87947 47.0233L31.3374 34.2305L20.8253 22.9348" fill="#EB3131"/>
<path d="M41.0094 19.3761L40.9903 19.3632L31.2945 13.8146L20.371 23.41L31.3325 34.2294L40.9771 28.736C42.668 27.8349 43.8159 26.0752 43.8159 24.0459C43.8159 22.0313 42.6834 20.2804 41.0093 19.3763" fill="#F6B60B"/>
<path d="M0.870993 4.16345C0.751057 4.60005 0.688019 5.05736 0.688019 5.53224V42.4719C0.688019 42.9459 0.750313 43.4048 0.871753 43.8398L21.5109 23.4698L0.871753 4.16398" fill="#5778C5"/>
<path d="M20.9718 24.0021L31.2989 13.8107L8.86621 0.971522C8.05082 0.489419 7.09915 0.211182 6.08082 0.211182C3.58821 0.211182 1.48507 1.88563 0.873096 4.15823C0.872345 4.16045 0.872345 4.16197 0.872345 4.16392L20.9718 24.0025" fill="#3BAD49"/>
</svg>
