<svg enable-background="new 0 0 512 512" viewBox="0 0 512 512" xmlns="http://www.w3.org/2000/svg">
	<path d="m507 205.9h-20.6v-1.1h-230.4v102.4h144.7c-21.1 59.6-77.8 102.4-144.7 102.4-84.8 0-153.6-68.8-153.6-153.6s68.8-153.6 153.6-153.6c39.2 0 74.8 14.8 101.9 38.9l72.4-72.4c-45.7-42.6-106.9-68.9-174.3-68.9-141.4 0-256 114.6-256 256s114.6 256 256 256 256-114.6 256-256c0-17.2-1.8-33.9-5-50.1z" fill="#ffc107" />
	<path d="m29.5 136.8 84.1 61.7c22.8-56.3 77.9-96.1 142.4-96.1 39.2 0 74.8 14.8 101.9 38.9l72.4-72.4c-45.7-42.6-106.9-68.9-174.3-68.9-98.3 0-183.6 55.5-226.5 136.8z" fill="#ff3d00" />
	<path d="m256 512c66.1 0 126.2-25.3 171.6-66.5l-79.2-67.1c-25.7 19.5-57.7 31.1-92.4 31.1-66.6 0-123.1-42.5-144.4-101.7l-83.5 64.3c42.4 83 128.4 139.9 227.9 139.9z" fill="#4caf50" />
	<path d="m507 205.9h-20.6v-1.1h-230.4v102.4h144.7c-10.1 28.6-28.6 53.3-52.3 71.3l79.2 67c-5.6 5.1 84.4-61.5 84.4-189.5 0-17.2-1.8-33.9-5-50.1z" fill="#1976d2" />
</svg>
