<svg width="253" height="74" viewBox="0 0 253 74" fill="none" xmlns="http://www.w3.org/2000/svg">
<g clip-path="url(#clip0_1401_384)">
<path d="M200.404 55.5003H203.901V32.3719H200.404V55.5003ZM231.901 40.7039L227.893 50.7306H227.773L223.612 40.7039H219.846L226.086 54.7177L222.528 62.5135H226.174L235.79 40.7046L231.901 40.7039ZM212.069 52.8732C210.926 52.8732 209.327 52.3073 209.327 50.909C209.327 49.124 211.317 48.4397 213.034 48.4397C214.571 48.4397 215.296 48.7664 216.229 49.213C215.958 51.3556 214.089 52.8731 212.069 52.8731L212.069 52.8732ZM212.492 40.198C209.96 40.198 207.339 41.2993 206.254 43.7391L209.357 45.0181C210.021 43.7391 211.255 43.3229 212.552 43.3229C214.361 43.3229 216.199 44.3931 216.229 46.298V46.5357C215.596 46.1786 214.239 45.6433 212.582 45.6433C209.235 45.6433 205.83 47.4577 205.83 50.8498C205.83 53.9442 208.574 55.9379 211.647 55.9379C213.997 55.9379 215.296 54.8965 216.107 53.6761H216.229V55.4624H219.606V46.5948C219.606 42.4888 216.499 40.198 212.492 40.198V40.198ZM190.881 43.5193H185.907V35.592H190.881C193.495 35.592 194.979 37.7282 194.979 39.5556C194.979 41.3478 193.495 43.5193 190.881 43.5193ZM190.791 32.3725H182.411V55.5008H185.907V46.7389H190.791C194.666 46.7389 198.476 43.9697 198.476 39.5564C198.476 35.144 194.666 32.3734 190.791 32.3734L190.791 32.3725ZM145.1 52.8771C142.684 52.8771 140.662 50.8796 140.662 48.1387C140.662 45.3659 142.684 43.3403 145.1 43.3403C147.485 43.3403 149.357 45.3661 149.357 48.1387C149.357 50.8796 147.485 52.8771 145.1 52.8771ZM149.115 41.9986H148.995C148.21 41.0749 146.7 40.2403 144.799 40.2403C140.813 40.2403 137.16 43.6981 137.16 48.1387C137.16 52.5491 140.813 55.9765 144.799 55.9765C146.7 55.9765 148.21 55.1418 148.995 54.1887H149.115V55.3203C149.115 58.3316 147.485 59.9401 144.859 59.9401C142.716 59.9401 141.387 58.4204 140.843 57.139L137.795 58.3907C138.669 60.4761 140.993 63.0402 144.859 63.0402C148.965 63.0402 152.437 60.6554 152.437 54.8432V40.717H149.116L149.115 41.9986ZM154.853 55.4996H158.354V32.3712H154.853V55.4996ZM163.517 47.87C163.427 44.8298 165.903 43.2804 167.684 43.2804C169.073 43.2804 170.249 43.9661 170.643 44.949L163.517 47.87ZM174.386 45.2467C173.722 43.4893 171.699 40.2403 167.563 40.2403C163.456 40.2403 160.045 43.4292 160.045 48.1085C160.045 52.5195 163.427 55.9766 167.955 55.9766C171.608 55.9766 173.722 53.7719 174.598 52.4898L171.88 50.7013C170.974 52.0129 169.737 52.8772 167.955 52.8772C166.174 52.8772 164.906 52.0723 164.092 50.4926L174.748 46.1415L174.386 45.2467ZM89.4774 42.6546V45.9925H97.5685C97.3269 47.8701 96.6929 49.2408 95.7266 50.1947C94.5488 51.3567 92.7071 52.6387 89.4773 52.6387C84.4956 52.6387 80.6012 48.675 80.6012 43.7574C80.6012 38.8398 84.4956 34.8755 89.4773 34.8755C92.1644 34.8755 94.1264 35.9189 95.5757 37.2601L97.9615 34.9051C95.9381 32.998 93.2515 31.5376 89.4773 31.5376C82.653 31.5376 76.9168 37.0216 76.9168 43.7574C76.9168 50.4925 82.653 55.9766 89.4773 55.9766C93.1601 55.9766 95.9382 54.7843 98.1116 52.5492C100.346 50.3436 101.04 47.2442 101.04 44.7403C101.04 43.9663 100.98 43.2509 100.859 42.6546H89.4774ZM110.24 52.8771C107.824 52.8771 105.741 50.91 105.741 48.1085C105.741 45.2771 107.824 43.3404 110.24 43.3404C112.655 43.3404 114.738 45.2771 114.738 48.1085C114.738 50.91 112.655 52.8771 110.24 52.8771ZM110.24 40.2403C105.831 40.2403 102.239 43.5484 102.239 48.1085C102.239 52.6387 105.831 55.9766 110.24 55.9766C114.648 55.9766 118.241 52.6387 118.241 48.1085C118.241 43.5484 114.648 40.2403 110.24 40.2403V40.2403ZM127.693 52.8771C125.279 52.8771 123.195 50.91 123.195 48.1085C123.195 45.2771 125.279 43.3404 127.693 43.3404C130.109 43.3404 132.192 45.2771 132.192 48.1085C132.192 50.91 130.109 52.8771 127.693 52.8771ZM127.693 40.2403C123.286 40.2403 119.693 43.5484 119.693 48.1085C119.693 52.6387 123.286 55.9766 127.693 55.9766C132.102 55.9766 135.694 52.6387 135.694 48.1085C135.694 43.5484 132.102 40.2403 127.693 40.2403" fill="white"/>
<path d="M38.8242 35.9351L18.8738 56.8393C18.8745 56.8436 18.876 56.8472 18.8767 56.8516C19.4886 59.1216 21.5889 60.793 24.0815 60.793C25.0779 60.793 26.0134 60.527 26.8157 60.0602L26.8794 60.0233L49.3374 47.2305L38.8253 35.9348" fill="#EB3131"/>
<path d="M59.0094 32.3761L58.9903 32.3632L49.2945 26.8146L38.371 36.41L49.3325 47.2294L58.9771 41.736C60.668 40.8349 61.8159 39.0752 61.8159 37.0459C61.8159 35.0313 60.6834 33.2804 59.0093 32.3763" fill="#F6B60B"/>
<path d="M18.871 17.1635C18.751 17.6 18.688 18.0574 18.688 18.5322V55.4719C18.688 55.9459 18.7503 56.4048 18.8717 56.8398L39.5109 36.4698L18.8717 17.164" fill="#5778C5"/>
<path d="M38.9718 37.0021L49.2988 26.8107L26.8662 13.9715C26.0508 13.4894 25.0991 13.2112 24.0808 13.2112C21.5882 13.2112 19.485 14.8856 18.8731 17.1582C18.8723 17.1604 18.8723 17.162 18.8723 17.1639L38.9718 37.0025" fill="#3BAD49"/>
<path d="M88.8213 18.0959H83.3544V19.4314H87.451C87.3397 20.5212 86.9004 21.3768 86.1596 21.9983C85.4188 22.6199 84.4729 22.932 83.3544 22.932C82.1275 22.932 81.0879 22.51 80.236 21.6718C79.4014 20.8162 78.9769 19.7581 78.9769 18.4834C78.9769 17.2088 79.4014 16.1507 80.236 15.2952C81.088 14.457 82.1275 14.0378 83.3544 14.0378C83.9841 14.0378 84.5843 14.1447 85.1347 14.3789C85.6853 14.6129 86.1274 14.9396 86.4729 15.3588L87.5124 14.3327C87.0409 13.8036 86.4437 13.399 85.7027 13.1041C84.9619 12.8092 84.1889 12.6677 83.3543 12.6677C81.7175 12.6677 80.3296 13.2284 79.1963 14.3471C78.0631 15.4686 77.4951 16.8503 77.4951 18.4834C77.4951 20.1165 78.0631 21.5013 79.1963 22.62C80.3296 23.7385 81.7175 24.2995 83.3543 24.2995C85.0731 24.2995 86.4435 23.7559 87.4977 22.6517C88.4259 21.7326 88.9002 20.4896 88.9002 18.9345C88.9002 18.6714 88.868 18.391 88.8211 18.0961L88.8213 18.0959ZM90.9392 12.916V24.0507H97.5245V22.6834H92.3886V19.1512H97.021V17.8157H92.3886V14.2863H97.5245V12.916L90.9392 12.916ZM106.759 14.2863V12.916H99.0078V14.2863H102.159V24.0506H103.608V14.2863H106.759ZM113.776 12.916H112.327V24.0507H113.776V12.916ZM123.343 14.2863V12.916H115.592V14.2863H118.743V24.0506H120.192V14.2863H123.343ZM137.969 14.3644C136.851 13.2283 135.48 12.6676 133.843 12.6676C132.204 12.6676 130.833 13.2283 129.715 14.347C128.596 15.4513 128.046 16.8358 128.046 18.4833C128.046 20.1309 128.596 21.5156 129.715 22.6199C130.833 23.7384 132.204 24.2994 133.843 24.2994C135.465 24.2994 136.851 23.7385 137.969 22.6199C139.088 21.5157 139.638 20.131 139.638 18.4833C139.638 16.8502 139.088 15.4684 137.969 14.3644V14.3644ZM130.754 15.2951C131.589 14.4569 132.614 14.0377 133.843 14.0377C135.07 14.0377 136.095 14.4569 136.915 15.2951C137.75 16.1189 138.159 17.194 138.159 18.4833C138.159 19.7755 137.75 20.8478 136.915 21.6717C136.095 22.5099 135.07 22.9319 133.843 22.9319C132.614 22.9319 131.589 22.5099 130.754 21.6717C129.937 20.8305 129.527 19.7755 129.527 18.4833C129.527 17.1941 129.937 16.1362 130.754 15.2951V15.2951ZM143.082 17.1162L143.02 14.9683H143.082L148.815 24.0506H150.329V12.9159H148.88V19.4313L148.941 21.5791H148.88L143.398 12.9159H141.632V24.0506H143.082V17.1162Z" fill="white" stroke="white" stroke-width="0.26666" stroke-miterlimit="10"/>
</g>
<defs>
<clipPath id="clip0_1401_384">
<rect width="253" height="74" fill="white"/>
</clipPath>
</defs>
</svg>
