<svg width="160" height="52" viewBox="0 0 160 52" fill="none" xmlns="http://www.w3.org/2000/svg">
<path d="M124.404 43.5003H127.901V20.3719H124.404V43.5003ZM155.901 28.7039L151.893 38.7306H151.773L147.612 28.7039H143.846L150.086 42.7177L146.528 50.5135H150.174L159.79 28.7046L155.901 28.7039ZM136.069 40.8732C134.926 40.8732 133.327 40.3073 133.327 38.909C133.327 37.124 135.317 36.4397 137.034 36.4397C138.571 36.4397 139.296 36.7664 140.229 37.213C139.958 39.3556 138.089 40.8731 136.069 40.8731L136.069 40.8732ZM136.492 28.198C133.961 28.198 131.339 29.2993 130.254 31.7391L133.357 33.0181C134.021 31.7391 135.255 31.3229 136.552 31.3229C138.361 31.3229 140.199 32.3931 140.229 34.298V34.5357C139.596 34.1786 138.239 33.6433 136.582 33.6433C133.235 33.6433 129.83 35.4577 129.83 38.8498C129.83 41.9442 132.574 43.9379 135.647 43.9379C137.997 43.9379 139.296 42.8965 140.107 41.6761H140.229V43.4624H143.606V34.5948C143.606 30.4888 140.499 28.198 136.492 28.198V28.198ZM114.881 31.5193H109.907V23.592H114.881C117.495 23.592 118.979 25.7282 118.979 27.5556C118.979 29.3478 117.495 31.5193 114.881 31.5193ZM114.791 20.3725H106.411V43.5008H109.907V34.7389H114.791C118.666 34.7389 122.476 31.9697 122.476 27.5564C122.476 23.144 118.666 20.3734 114.791 20.3734L114.791 20.3725ZM69.1002 40.8771C66.6843 40.8771 64.6624 38.8796 64.6624 36.1387C64.6624 33.3659 66.6843 31.3403 69.1002 31.3403C71.4853 31.3403 73.357 33.3661 73.357 36.1387C73.357 38.8796 71.4853 40.8771 69.1002 40.8771ZM73.1154 29.9986H72.9945C72.2099 29.0749 70.6996 28.2403 68.7985 28.2403C64.8125 28.2403 61.1596 31.6981 61.1596 36.1387C61.1596 40.5491 64.8125 43.9765 68.7985 43.9765C70.6996 43.9765 72.2098 43.1418 72.9945 42.1887H73.1154V43.3203C73.1154 46.3316 71.4853 47.9401 68.8586 47.9401C66.7158 47.9401 65.3873 46.4204 64.8433 45.139L61.7945 46.3907C62.6693 48.4761 64.9934 51.0402 68.8587 51.0402C72.9655 51.0402 76.4375 48.6554 76.4375 42.8432V28.717H73.1156L73.1154 29.9986ZM78.8532 43.4996H82.3539V20.3712H78.8532V43.4996ZM87.517 35.87C87.4269 32.8298 89.9034 31.2804 91.6838 31.2804C93.0732 31.2804 94.2495 31.9661 94.6435 32.949L87.517 35.87ZM98.3856 33.2467C97.7217 31.4893 95.6991 28.2403 91.5629 28.2403C87.4562 28.2403 84.0449 31.4292 84.0449 36.1085C84.0449 40.5195 87.4269 43.9766 91.9547 43.9766C95.6076 43.9766 97.7218 41.7719 98.5979 40.4898L95.8805 38.7013C94.9744 40.0129 93.7372 40.8772 91.9547 40.8772C90.1744 40.8772 88.9057 40.0723 88.0918 38.4926L98.748 34.1415L98.3856 33.2467ZM13.4774 30.6546V33.9925H21.5685C21.3269 35.8701 20.693 37.2408 19.7267 38.1947C18.5488 39.3567 16.7071 40.6387 13.4773 40.6387C8.49558 40.6387 4.60121 36.675 4.60121 31.7574C4.60121 26.8398 8.49558 22.8755 13.4773 22.8755C16.1644 22.8755 18.1264 23.9189 19.5757 25.2601L21.9615 22.9051C19.9381 20.998 17.2515 19.5376 13.4773 19.5376C6.65303 19.5376 0.916824 25.0216 0.916824 31.7574C0.916824 38.4925 6.65303 43.9766 13.4773 43.9766C17.1601 43.9766 19.9382 42.7843 22.1116 40.5492C24.3459 38.3436 25.0405 35.2442 25.0405 32.7403C25.0405 31.9663 24.9796 31.2509 24.8589 30.6546H13.4774ZM34.2403 40.8771C31.8244 40.8771 29.7411 38.91 29.7411 36.1085C29.7411 33.2771 31.8244 31.3404 34.2403 31.3404C36.6552 31.3404 38.7385 33.2771 38.7385 36.1085C38.7385 38.91 36.6552 40.8771 34.2403 40.8771ZM34.2403 28.2403C29.8311 28.2403 26.2389 31.5484 26.2389 36.1085C26.2389 40.6387 29.8311 43.9766 34.2403 43.9766C38.6478 43.9766 42.2407 40.6387 42.2407 36.1085C42.2407 31.5484 38.6478 28.2403 34.2403 28.2403V28.2403ZM51.6931 40.8771C49.2789 40.8771 47.1949 38.91 47.1949 36.1085C47.1949 33.2771 49.279 31.3404 51.6931 31.3404C54.1089 31.3404 56.1916 33.2771 56.1916 36.1085C56.1916 38.91 54.1089 40.8771 51.6931 40.8771ZM51.6931 28.2403C47.2855 28.2403 43.6934 31.5484 43.6934 36.1085C43.6934 40.6387 47.2855 43.9766 51.6931 43.9766C56.1023 43.9766 59.6945 40.6387 59.6945 36.1085C59.6945 31.5484 56.1023 28.2403 51.6931 28.2403" fill="white"/>
<path d="M12.8213 6.0959H7.35437V7.43139H11.451C11.3397 8.52121 10.9004 9.37681 10.1596 9.99828C9.4188 10.6199 8.47293 10.932 7.35439 10.932C6.12747 10.932 5.08793 10.51 4.23603 9.67177C3.40134 8.81616 2.97687 7.75812 2.97687 6.48341C2.97687 5.20879 3.40134 4.15074 4.23603 3.2952C5.08796 2.45698 6.12748 2.03778 7.35439 2.03778C7.98407 2.03778 8.58431 2.14472 9.13467 2.37891C9.68526 2.61293 10.1273 2.93963 10.4729 3.35884L11.5124 2.33267C11.0409 1.80358 10.4437 1.39899 9.70264 1.10411C8.96184 0.809226 8.18886 0.6677 7.35424 0.6677C5.71747 0.6677 4.32962 1.22842 3.19632 2.34714C2.0631 3.46859 1.49504 4.85034 1.49504 6.48344C1.49504 8.11654 2.06305 9.50127 3.19632 10.62C4.32955 11.7385 5.71747 12.2995 7.35424 12.2995C9.07309 12.2995 10.4435 11.7559 11.4977 10.6517C12.4259 9.7326 12.9002 8.48964 12.9002 6.93452C12.9002 6.67145 12.868 6.39101 12.8211 6.09612L12.8213 6.0959ZM14.9392 0.91605V12.0507H21.5245V10.6834H16.3886V7.15118H21.021V5.81569H16.3886V2.28628H21.5245V0.916009L14.9392 0.91605ZM30.7587 2.28633V0.91605H23.0078V2.28633H26.1586V12.0506H27.608V2.28633H30.7587ZM37.7759 0.91605H36.3265V12.0507H37.7759V0.91605ZM47.343 2.28633V0.91605H39.5922V2.28633H42.7427V12.0506H44.1921V2.28633H47.343ZM61.9692 2.36439C60.8506 1.22834 59.4802 0.667603 57.8433 0.667603C56.2036 0.667603 54.8333 1.22832 53.7147 2.34704C52.596 3.45129 52.0457 4.83582 52.0457 6.48335C52.0457 8.13087 52.5961 9.51561 53.7147 10.6199C54.8333 11.7384 56.2036 12.2994 57.8433 12.2994C59.4655 12.2994 60.8505 11.7385 61.9692 10.6199C63.0878 9.51568 63.6381 8.13101 63.6381 6.48335C63.6381 4.85025 63.0877 3.46843 61.9692 2.36439V2.36439ZM54.7542 3.2951C55.5887 2.45688 56.6136 2.03768 57.8433 2.03768C59.0703 2.03768 60.0952 2.45689 60.915 3.2951C61.7495 4.11889 62.1594 5.19405 62.1594 6.48332C62.1594 7.77552 61.7495 8.84777 60.915 9.67167C60.0951 10.5099 59.0702 10.9319 57.8433 10.9319C56.6136 10.9319 55.5887 10.5099 54.7542 9.67167C53.9371 8.8305 53.5273 7.7755 53.5273 6.48332C53.5273 5.19407 53.9371 4.13621 54.7542 3.2951V3.2951ZM67.0818 5.11621L67.0203 2.96834H67.0818L72.8152 12.0506H74.3289V0.915939H72.8795V7.43126L72.941 9.57913H72.8795L67.398 0.915939H65.6324V12.0506H67.0818V5.11621Z" fill="white" stroke="white" stroke-width="0.26666" stroke-miterlimit="10"/>
</svg>
